<svg width="47" height="47" viewBox="0 0 47 47" fill="none" xmlns="http://www.w3.org/2000/svg">
<path d="M45.9818 22.8H43.1527C43.059 20.8249 42.6733 18.9287 42.0316 17.1492L44.6428 16.0671C45.1157 15.8714 45.3401 15.329 45.1444 14.8551C44.9488 14.3813 44.4036 14.1588 43.9325 14.3535L41.3204 15.4356C40.4895 13.6794 39.4074 12.0715 38.1139 10.65L40.1186 8.6452C40.4812 8.28263 40.4812 7.69567 40.1186 7.33403C39.7561 6.97147 39.17 6.97147 38.8075 7.33403L36.8027 9.3388C35.3821 8.04618 33.7733 6.96313 32.018 6.13229L33.1001 3.51923C33.2958 3.04633 33.0714 2.50387 32.5984 2.30822C32.1283 2.11349 31.5822 2.33603 31.3865 2.8108L30.3053 5.42107C28.5259 4.7794 26.6296 4.39365 24.6536 4.3V1.47274C24.6536 0.960889 24.2382 0.545471 23.7263 0.545471C23.2144 0.545471 22.799 0.960889 22.799 1.47274V4.30185C20.8239 4.39551 18.9277 4.78125 17.1482 5.42293L16.068 2.81173C15.8723 2.33789 15.3298 2.11442 14.8569 2.30914C14.3831 2.5048 14.1587 3.04725 14.3544 3.52016L15.4365 6.13229C13.6802 6.96313 12.0723 8.04618 10.6508 9.3388L8.64606 7.33403C8.2835 6.97147 7.69746 6.97147 7.3349 7.33403C6.97234 7.6966 6.97234 8.28263 7.3349 8.6452L9.33966 10.65C8.04705 12.0715 6.96399 13.6794 6.13316 15.4356L3.52196 14.3535C3.04905 14.1578 2.50659 14.3813 2.31001 14.8551C2.11436 15.3281 2.33876 15.8705 2.81167 16.0671L5.42194 17.1492C4.78026 18.9287 4.39452 20.824 4.30086 22.8H1.47268C0.960828 22.8 0.54541 23.2154 0.54541 23.7273C0.54541 24.2391 0.960828 24.6546 1.47268 24.6546H4.30179C4.39545 26.6306 4.78119 28.5269 5.42286 30.3072L2.81259 31.3875C2.33968 31.5831 2.11436 32.1256 2.31001 32.5994C2.45745 32.9564 2.80332 33.1716 3.16681 33.1716C3.28457 33.1716 3.40512 33.1493 3.52103 33.1011L6.13408 32.019C6.96492 33.7752 8.04705 35.3831 9.33966 36.8037L7.3349 38.8085C6.97234 39.171 6.97234 39.7571 7.3349 40.1196C7.51572 40.3004 7.7531 40.3913 7.99048 40.3913C8.22787 40.3913 8.46525 40.3004 8.64606 40.1196L10.6508 38.1149C12.0723 39.4084 13.6812 40.4905 15.4365 41.3214L14.3544 43.9335C14.1587 44.4073 14.3831 44.9498 14.856 45.1454C14.9719 45.1937 15.0925 45.2159 15.2102 45.2159C15.5746 45.2159 15.9196 45.0008 16.067 44.6438L17.1482 42.0326C18.9277 42.6743 20.823 43.06 22.799 43.1537V45.9818C22.799 46.4946 23.2144 46.9091 23.7263 46.9091C24.2382 46.9091 24.6536 46.4946 24.6536 45.9818V43.1527C26.6296 43.0591 28.5249 42.6733 30.3053 42.0317L31.3865 44.6419C31.5339 44.9989 31.8798 45.2141 32.2433 45.2141C32.362 45.2141 32.4825 45.1918 32.5984 45.1436C33.0714 44.9479 33.2958 44.4055 33.1001 43.9316L32.018 41.3195C33.7742 40.4887 35.3821 39.4065 36.8027 38.1139L38.8075 40.1187C38.9883 40.2995 39.2257 40.3904 39.463 40.3904C39.7004 40.3904 39.9378 40.2995 40.1186 40.1187C40.4812 39.7561 40.4812 39.1701 40.1186 38.8075L38.1139 36.8028C39.4065 35.3822 40.4895 33.7734 41.3194 32.018L43.9325 33.0992C44.0484 33.1475 44.169 33.1697 44.2876 33.1697C44.6521 33.1697 44.997 32.9546 45.1444 32.5976C45.3401 32.1237 45.1157 31.5813 44.6428 31.3856L42.0316 30.3044C42.6733 28.525 43.059 26.6297 43.1527 24.6536H45.9818C46.4946 24.6536 46.909 24.2382 46.909 23.7264C46.909 23.2145 46.4946 22.8 45.9818 22.8ZM23.7272 41.3455C14.0122 41.3455 6.10905 33.4423 6.10905 23.7273C6.10905 14.0123 14.0122 6.10911 23.7272 6.10911C33.4423 6.10911 41.3454 14.0123 41.3454 23.7273C41.3454 33.4423 33.4423 41.3455 23.7272 41.3455Z" fill="#5051DB"/>
<path d="M23.7272 20.9455C26.2837 20.9455 28.3635 18.8656 28.3635 16.3092C28.3635 13.7527 26.2837 11.6728 23.7272 11.6728C21.1707 11.6728 19.0908 13.7527 19.0908 16.3092C19.0908 18.8656 21.1707 20.9455 23.7272 20.9455ZM23.7272 13.5273C25.2609 13.5273 26.509 14.7754 26.509 16.3092C26.509 17.8429 25.2609 19.091 23.7272 19.091C22.1935 19.091 20.9454 17.8429 20.9454 16.3092C20.9454 14.7754 22.1935 13.5273 23.7272 13.5273Z" fill="#5051DB"/>
<path d="M27.4364 22.8001H20.0182C17.4617 22.8001 15.3818 24.88 15.3818 27.4365V33.0001C15.3818 33.5129 15.7973 33.9274 16.3091 33.9274C16.821 33.9274 17.2364 33.5129 17.2364 33.0001V27.4365C17.2364 25.9028 18.4845 24.6547 20.0182 24.6547H27.4364C28.9701 24.6547 30.2182 25.9028 30.2182 27.4365V33.0001C30.2182 33.5129 30.6327 33.9274 31.1455 33.9274C31.6583 33.9274 32.0727 33.5129 32.0727 33.0001V27.4365C32.0727 24.88 29.9929 22.8001 27.4364 22.8001Z" fill="#5051DB"/>
</svg>
