<svg width="475" height="998" viewBox="0 0 475 998" fill="none" xmlns="http://www.w3.org/2000/svg">
<rect x="-837.806" width="1442" height="440" rx="220" transform="rotate(24.4613 -837.806 0)" fill="#5959FF"/>
<path d="M173.676 701.112C173.676 703.776 173.244 706.104 172.38 708.096C171.516 710.064 170.172 711.6 168.348 712.704C166.524 713.808 164.184 714.36 161.328 714.36C158.496 714.36 156.168 713.808 154.344 712.704C152.52 711.6 151.164 710.052 150.276 708.06C149.412 706.068 148.98 703.74 148.98 701.076C148.98 698.412 149.412 696.096 150.276 694.128C151.164 692.16 152.52 690.636 154.344 689.556C156.168 688.452 158.508 687.9 161.364 687.9C164.22 687.9 166.548 688.452 168.348 689.556C170.172 690.636 171.516 692.172 172.38 694.164C173.244 696.132 173.676 698.448 173.676 701.112ZM155.424 701.112C155.424 703.632 155.88 705.612 156.792 707.052C157.728 708.492 159.24 709.212 161.328 709.212C163.464 709.212 164.976 708.492 165.864 707.052C166.776 705.612 167.232 703.632 167.232 701.112C167.232 698.592 166.776 696.612 165.864 695.172C164.976 693.708 163.476 692.976 161.364 692.976C159.252 692.976 157.728 693.708 156.792 695.172C155.88 696.612 155.424 698.592 155.424 701.112ZM196.928 694.236V714H192.32L191.528 711.48H191.168C190.544 712.488 189.692 713.22 188.612 713.676C187.532 714.132 186.38 714.36 185.156 714.36C183.116 714.36 181.436 713.784 180.116 712.632C178.82 711.48 178.172 709.644 178.172 707.124V694.236H184.256V705.432C184.256 706.776 184.472 707.796 184.904 708.492C185.36 709.188 186.08 709.536 187.064 709.536C188.528 709.536 189.524 708.996 190.052 707.916C190.58 706.836 190.844 705.276 190.844 703.236V694.236H196.928ZM213.599 693.876C213.911 693.876 214.259 693.9 214.643 693.948C215.027 693.972 215.327 694.008 215.543 694.056L215.039 699.744C214.823 699.696 214.547 699.66 214.211 699.636C213.875 699.588 213.503 699.564 213.095 699.564C212.327 699.564 211.559 699.684 210.791 699.924C210.047 700.164 209.423 700.62 208.919 701.292C208.439 701.94 208.199 702.876 208.199 704.1V714H202.115V694.236H206.687L207.623 697.476H207.875C208.451 696.492 209.243 695.652 210.251 694.956C211.259 694.236 212.375 693.876 213.599 693.876ZM239.653 693.012C237.781 693.012 236.329 693.744 235.297 695.208C234.265 696.672 233.749 698.676 233.749 701.22C233.749 703.836 234.241 705.84 235.225 707.232C236.209 708.6 237.745 709.284 239.833 709.284C240.913 709.284 241.981 709.152 243.037 708.888C244.093 708.6 245.209 708.24 246.385 707.808V712.992C245.233 713.472 244.081 713.82 242.929 714.036C241.801 714.252 240.565 714.36 239.221 714.36C236.485 714.36 234.253 713.808 232.525 712.704C230.797 711.6 229.513 710.064 228.673 708.096C227.857 706.128 227.449 703.824 227.449 701.184C227.449 698.592 227.917 696.3 228.853 694.308C229.789 692.316 231.169 690.756 232.993 689.628C234.817 688.5 237.049 687.936 239.689 687.936C240.937 687.936 242.221 688.092 243.541 688.404C244.885 688.692 246.169 689.136 247.393 689.736L245.485 694.632C244.525 694.2 243.565 693.828 242.605 693.516C241.645 693.18 240.661 693.012 239.653 693.012ZM269.589 704.064C269.589 707.376 268.713 709.92 266.961 711.696C265.233 713.472 262.857 714.36 259.833 714.36C257.961 714.36 256.293 713.964 254.829 713.172C253.389 712.356 252.249 711.192 251.409 709.68C250.593 708.144 250.185 706.272 250.185 704.064C250.185 700.8 251.049 698.292 252.777 696.54C254.529 694.764 256.917 693.876 259.941 693.876C261.813 693.876 263.469 694.272 264.909 695.064C266.373 695.856 267.513 697.008 268.329 698.52C269.169 700.032 269.589 701.88 269.589 704.064ZM256.341 704.064C256.341 705.912 256.617 707.316 257.169 708.276C257.721 709.212 258.633 709.68 259.905 709.68C261.153 709.68 262.053 709.212 262.605 708.276C263.157 707.316 263.433 705.912 263.433 704.064C263.433 702.24 263.157 700.872 262.605 699.96C262.053 699.024 261.141 698.556 259.869 698.556C258.621 698.556 257.721 699.024 257.169 699.96C256.617 700.872 256.341 702.24 256.341 704.064ZM285.248 693.876C285.56 693.876 285.908 693.9 286.292 693.948C286.676 693.972 286.976 694.008 287.192 694.056L286.688 699.744C286.472 699.696 286.196 699.66 285.86 699.636C285.524 699.588 285.152 699.564 284.744 699.564C283.976 699.564 283.208 699.684 282.44 699.924C281.696 700.164 281.072 700.62 280.568 701.292C280.088 701.94 279.848 702.876 279.848 704.1V714H273.764V694.236H278.336L279.272 697.476H279.524C280.1 696.492 280.892 695.652 281.9 694.956C282.908 694.236 284.024 693.876 285.248 693.876ZM298.186 693.876C300.97 693.876 303.178 694.644 304.81 696.18C306.442 697.692 307.258 699.924 307.258 702.876V705.684H294.766C294.814 706.98 295.234 708.012 296.026 708.78C296.818 709.548 297.946 709.932 299.41 709.932C300.658 709.932 301.798 709.812 302.83 709.572C303.886 709.332 304.966 708.948 306.07 708.42V712.92C305.086 713.424 304.042 713.784 302.938 714C301.858 714.24 300.514 714.36 298.906 714.36C296.914 714.36 295.138 714 293.578 713.28C292.042 712.56 290.83 711.456 289.942 709.968C289.078 708.456 288.646 706.548 288.646 704.244C288.646 701.916 289.042 699.984 289.834 698.448C290.626 696.912 291.73 695.772 293.146 695.028C294.586 694.26 296.266 693.876 298.186 693.876ZM298.294 698.088C297.358 698.088 296.578 698.388 295.954 698.988C295.354 699.564 294.994 700.488 294.874 701.76H301.678C301.654 700.728 301.366 699.864 300.814 699.168C300.262 698.448 299.422 698.088 298.294 698.088ZM171.12 737.296L162.516 763H155.568L147 737.296H153.588L157.764 751.552C157.884 751.912 158.028 752.464 158.196 753.208C158.388 753.928 158.568 754.684 158.736 755.476C158.904 756.244 159.012 756.88 159.06 757.384C159.132 756.88 159.24 756.244 159.384 755.476C159.552 754.708 159.72 753.964 159.888 753.244C160.056 752.5 160.2 751.948 160.32 751.588L164.568 737.296H171.12ZM181.862 742.84C184.43 742.84 186.422 743.44 187.838 744.64C189.254 745.84 189.962 747.592 189.962 749.896V763H185.75L184.562 760.336H184.418C183.578 761.416 182.69 762.196 181.754 762.676C180.818 763.132 179.534 763.36 177.902 763.36C176.15 763.36 174.698 762.844 173.546 761.812C172.394 760.78 171.818 759.184 171.818 757.024C171.818 754.936 172.55 753.388 174.014 752.38C175.502 751.348 177.674 750.772 180.53 750.652L183.914 750.544V749.968C183.914 749.008 183.662 748.312 183.158 747.88C182.678 747.448 182.006 747.232 181.142 747.232C180.278 747.232 179.378 747.376 178.442 747.664C177.506 747.928 176.558 748.264 175.598 748.672L173.762 744.64C174.842 744.064 176.066 743.62 177.434 743.308C178.802 742.996 180.278 742.84 181.862 742.84ZM183.914 754L182.078 754.072C180.566 754.12 179.51 754.396 178.91 754.9C178.31 755.38 178.01 756.04 178.01 756.88C178.01 757.624 178.226 758.164 178.658 758.5C179.09 758.836 179.642 759.004 180.314 759.004C181.322 759.004 182.174 758.704 182.87 758.104C183.566 757.48 183.914 756.64 183.914 755.584V754ZM201.168 763H195.084V735.64H201.168V763ZM225.053 743.236V763H220.445L219.653 760.48H219.293C218.669 761.488 217.817 762.22 216.737 762.676C215.657 763.132 214.505 763.36 213.281 763.36C211.241 763.36 209.561 762.784 208.241 761.632C206.945 760.48 206.297 758.644 206.297 756.124V743.236H212.381V754.432C212.381 755.776 212.597 756.796 213.029 757.492C213.485 758.188 214.205 758.536 215.189 758.536C216.653 758.536 217.649 757.996 218.177 756.916C218.705 755.836 218.969 754.276 218.969 752.236V743.236H225.053ZM238.772 742.876C241.556 742.876 243.764 743.644 245.396 745.18C247.028 746.692 247.844 748.924 247.844 751.876V754.684H235.352C235.4 755.98 235.82 757.012 236.612 757.78C237.404 758.548 238.532 758.932 239.996 758.932C241.244 758.932 242.384 758.812 243.416 758.572C244.472 758.332 245.552 757.948 246.656 757.42V761.92C245.672 762.424 244.628 762.784 243.524 763C242.444 763.24 241.1 763.36 239.492 763.36C237.5 763.36 235.724 763 234.164 762.28C232.628 761.56 231.416 760.456 230.528 758.968C229.664 757.456 229.232 755.548 229.232 753.244C229.232 750.916 229.628 748.984 230.42 747.448C231.212 745.912 232.316 744.772 233.732 744.028C235.172 743.26 236.852 742.876 238.772 742.876ZM238.88 747.088C237.944 747.088 237.164 747.388 236.54 747.988C235.94 748.564 235.58 749.488 235.46 750.76H242.264C242.24 749.728 241.952 748.864 241.4 748.168C240.848 747.448 240.008 747.088 238.88 747.088ZM266.152 757.024C266.152 758.968 265.468 760.516 264.1 761.668C262.756 762.796 260.644 763.36 257.764 763.36C256.372 763.36 255.148 763.276 254.092 763.108C253.06 762.94 252.016 762.64 250.96 762.208V757.312C252.112 757.84 253.312 758.248 254.56 758.536C255.808 758.8 256.864 758.932 257.728 758.932C258.64 758.932 259.3 758.812 259.708 758.572C260.116 758.332 260.32 757.996 260.32 757.564C260.32 757.252 260.212 756.976 259.996 756.736C259.804 756.496 259.396 756.232 258.772 755.944C258.172 755.632 257.272 755.224 256.072 754.72C254.896 754.216 253.924 753.7 253.156 753.172C252.412 752.644 251.848 752.02 251.464 751.3C251.104 750.556 250.924 749.632 250.924 748.528C250.924 746.656 251.644 745.252 253.084 744.316C254.548 743.356 256.48 742.876 258.88 742.876C260.152 742.876 261.352 743.008 262.48 743.272C263.608 743.536 264.772 743.944 265.972 744.496L264.244 748.6C263.26 748.168 262.3 747.82 261.364 747.556C260.452 747.292 259.624 747.16 258.88 747.16C257.488 747.16 256.792 747.52 256.792 748.24C256.792 748.504 256.888 748.756 257.08 748.996C257.296 749.212 257.692 749.452 258.268 749.716C258.868 749.98 259.732 750.352 260.86 750.832C261.988 751.288 262.948 751.78 263.74 752.308C264.532 752.812 265.132 753.436 265.54 754.18C265.948 754.924 266.152 755.872 266.152 757.024Z" fill="white"/>
</svg>
