<svg width="40" height="40" viewBox="0 0 40 40" fill="none" xmlns="http://www.w3.org/2000/svg">
<path d="M19.5381 22.7842L17.8535 22.3626V14.6003C19.798 14.0769 21.492 12.8201 22.5532 11.0955L25.6639 6.03969C25.8669 5.71176 25.9737 5.33386 25.9737 4.94721C25.9737 3.79788 25.0387 2.86218 23.8887 2.86218H23.632C22.9337 2.86218 22.2847 3.20948 21.8974 3.79039L18.8173 8.41018C18.327 9.14537 17.6361 9.69817 16.8447 10.0236C17.4744 9.26655 17.8535 8.29462 17.8535 7.23462C17.8535 4.82353 15.8915 2.86218 13.4811 2.86218C11.0706 2.86218 9.10864 4.82353 9.10864 7.23462C9.10864 8.49263 9.64582 9.62446 10.4984 10.4227C7.63388 10.7544 5.02666 12.4072 3.52691 14.9064L0.662344 19.6811C0.466834 20.0059 0.36377 20.3782 0.36377 20.7586C0.36377 21.9123 1.30259 22.8505 2.45629 22.8505H2.7024C3.40324 22.8505 4.0541 22.5019 4.44263 21.9191L8.31098 16.1163C8.50774 15.8202 8.7882 15.5985 9.10864 15.4729V20.9766V23.3477V30.9707H4.7362C3.35826 30.9707 2.23767 32.0913 2.23767 33.4692C2.23767 34.8472 3.35826 35.9678 4.7362 35.9678H11.6072C12.9851 35.9678 14.1057 34.8472 14.1057 33.4692V27.8538L17.3176 28.3129C17.623 28.356 17.8535 28.6221 17.8535 28.9306V36.5924C17.8535 37.9703 18.9741 39.0909 20.352 39.0909C21.73 39.0909 22.8506 37.9703 22.8506 36.5924V27.0261C22.8506 25.0161 21.4883 23.2715 19.5381 22.7842ZM14.0882 16.9876L13.4811 17.5948L12.8739 16.9876L13.2331 11.6071H13.7291L14.0882 16.9876ZM10.3579 7.23462C10.3579 5.5125 11.759 4.11145 13.4811 4.11145C15.2032 4.11145 16.6042 5.5125 16.6042 7.23462C16.6042 8.95673 15.2032 10.3578 13.4811 10.3578C11.759 10.3578 10.3579 8.95673 10.3579 7.23462ZM11.6072 34.7185H4.7362C4.04723 34.7185 3.48694 34.1582 3.48694 33.4692C3.48694 32.7803 4.04723 32.22 4.7362 32.22H10.3579V26.3927C11.0119 27.0649 11.8776 27.534 12.8564 27.6751V33.4692C12.8564 34.1582 12.2961 34.7185 11.6072 34.7185ZM21.6013 36.5924C21.6013 37.2814 21.041 37.8417 20.352 37.8417C19.6631 37.8417 19.1028 37.2814 19.1028 36.5924V28.9306C19.1028 28.0043 18.4113 27.2066 17.4943 27.0761L13.0395 26.4396C11.511 26.221 10.3579 24.8924 10.3579 23.3477V20.9766V14.1056H9.73327C8.74198 14.1056 7.82127 14.5984 7.27159 15.4229L3.40324 21.2258C3.24583 21.4606 2.98411 21.6012 2.70177 21.6012H2.45629C1.99094 21.6012 1.61304 21.2233 1.61304 20.7586C1.61304 20.6055 1.65426 20.4556 1.73297 20.3251L4.59816 15.5497C6.0573 13.1174 8.72574 11.6071 11.5616 11.6071H11.9807L11.5897 17.4699L13.4811 19.3612L15.3725 17.4699L14.9814 11.6071H15.1795C17.064 11.6071 18.8117 10.6713 19.8567 9.10352L22.9368 4.48373C23.0923 4.25074 23.3522 4.11145 23.632 4.11145H23.8887C24.3491 4.11145 24.7245 4.48685 24.7245 4.94721C24.7245 5.10212 24.682 5.25328 24.6008 5.38508L21.4901 10.4402C20.5194 12.0168 18.9216 13.1299 17.1064 13.4928L16.6042 13.5934V23.3383L19.2358 23.996C20.6281 24.3446 21.6013 25.5901 21.6013 27.0261V36.5924Z" fill="#5051DB"/>
<path d="M32.8447 11.8656L38.0023 6.70805C38.7044 6.00596 39.0911 5.07276 39.0911 4.08022C39.0911 2.03079 37.4239 0.363647 35.3745 0.363647C34.4275 0.363647 33.5343 0.715316 32.8447 1.35744C32.1551 0.715316 31.2619 0.363647 30.315 0.363647C28.2655 0.363647 26.5984 2.03079 26.5984 4.08022C26.5984 5.07276 26.985 6.00596 27.6871 6.70805L32.8447 11.8656ZM30.315 1.61291C30.9739 1.61291 31.5936 1.86964 32.0596 2.33562L32.8447 3.1214L33.6299 2.33562C34.0959 1.86964 34.7155 1.61291 35.3745 1.61291C36.7349 1.61291 37.8418 2.71976 37.8418 4.08022C37.8418 4.7392 37.5851 5.35884 37.1191 5.82482L32.8447 10.0992L28.5704 5.82419C28.1044 5.35884 27.8477 4.7392 27.8477 4.08022C27.8477 2.71976 28.9545 1.61291 30.315 1.61291Z" fill="#5051DB"/>
<path d="M29.9807 16.4723C30.6097 15.9483 30.9707 15.1775 30.9707 14.3586C30.9707 12.8413 29.7358 11.6071 28.2192 11.6071H28.1036C27.5521 11.6071 27.0249 11.7682 26.5951 12.0524C26.1517 11.7626 25.6345 11.6071 25.0929 11.6071H24.9773C23.4607 11.6071 22.2258 12.8413 22.2258 14.3586C22.2258 15.1775 22.5869 15.9476 23.2159 16.4723L26.5983 19.2913L29.9807 16.4723ZM23.4751 14.3586C23.4751 13.5303 24.1491 12.8563 24.9773 12.8563H25.0929C25.4883 12.8563 25.8749 13.0169 26.1966 13.3348L26.6389 13.7002L27.0424 13.2967C27.3216 13.0169 27.7082 12.8563 28.1036 12.8563H28.2192C29.0475 12.8563 29.7214 13.5303 29.7214 14.3586C29.7214 14.8058 29.5247 15.2262 29.1805 15.5129L26.5983 17.6648L24.016 15.5129C23.6719 15.2262 23.4751 14.8058 23.4751 14.3586Z" fill="#5051DB"/>
<path d="M36.3395 18.478H36.224C35.6724 18.478 35.1452 18.6392 34.7155 18.9234C34.272 18.6336 33.7548 18.478 33.2133 18.478H33.0977C31.5811 18.478 30.3462 19.7123 30.3462 21.2295C30.3462 22.0484 30.7072 22.8186 31.3362 23.3433L34.7186 26.1623L38.101 23.3433C38.73 22.8192 39.0911 22.0484 39.0911 21.2295C39.0911 19.7123 37.8562 18.478 36.3395 18.478ZM37.3009 22.3839L34.7186 24.5357L32.1364 22.3839C31.7922 22.0972 31.5955 21.6768 31.5955 21.2295C31.5955 20.4013 32.2694 19.7273 33.0977 19.7273H33.2133C33.6087 19.7273 33.9953 19.8878 34.317 20.2058L34.7592 20.5712L35.1627 20.1677C35.4419 19.8878 35.8286 19.7273 36.224 19.7273H36.3395C37.1678 19.7273 37.8418 20.4013 37.8418 21.2295C37.8418 21.6768 37.645 22.0972 37.3009 22.3839Z" fill="#5051DB"/>
<path d="M30.0932 26.5983H29.9777C29.4261 26.5983 28.8989 26.7594 28.4692 27.0436C28.0257 26.7538 27.5085 26.5983 26.9669 26.5983H26.8514C25.3348 26.5983 24.0999 27.8325 24.0999 29.3498C24.0999 30.1687 24.4609 30.9388 25.0899 31.4635L28.4723 34.2825L31.8547 31.4635C32.4837 30.9395 32.8447 30.1687 32.8447 29.3498C32.8447 27.8325 31.6098 26.5983 30.0932 26.5983ZM31.0545 30.5041L28.4723 32.656L25.8901 30.5041C25.5459 30.2174 25.3491 29.797 25.3491 29.3498C25.3491 28.5215 26.0231 27.8475 26.8514 27.8475H26.9669C27.3623 27.8475 27.749 28.0081 28.0706 28.326L28.5129 28.6914L28.9164 28.2879C29.1956 28.0081 29.5823 27.8475 29.9777 27.8475H30.0932C30.9215 27.8475 31.5955 28.5215 31.5955 29.3498C31.5955 29.797 31.3987 30.2174 31.0545 30.5041Z" fill="#5051DB"/>
</svg>
